<?xml version="1.0" encoding="UTF-8"?>
<svg width="792px" height="281px" viewBox="0 0 792 281" version="1.1" xmlns="http://www.w3.org/2000/svg" xmlns:xlink="http://www.w3.org/1999/xlink">
    <!-- Generator: Sketch 63.1 (92452) - https://sketch.com -->
    <title>overtraining</title>
    <desc>Created with Sketch.</desc>
    <g id="overtraining" stroke="none" stroke-width="1" fill="none" fill-rule="evenodd">
        <rect fill="#FFFFFF" x="0" y="0" width="792" height="281"></rect>
        <g id="Group" transform="translate(-651.000000, 40.000000)">
            <g id="axis/general" transform="translate(0.000000, 6.015343)">
                <g id="axis/label-0" transform="translate(571.000000, 154.000000)" font-family="SourceSansPro-Regular, Source Sans Pro" font-size="16" font-weight="normal">
                    <text id="0"></text>
                </g>
                <g id="axis/label-x" transform="translate(901.000000, 142.000000)" fill="#333333" fill-rule="nonzero">
                    <path d="M1.616,16 L2.656,14.192 C2.928,13.728 3.184,13.248 3.44,12.8 L3.504,12.8 C3.792,13.248 4.08,13.728 4.352,14.192 L5.488,16 L6.928,16 L4.4,12.08 L6.752,8.224 L5.36,8.224 L4.416,9.92 C4.176,10.352 3.952,10.784 3.712,11.216 L3.648,11.216 C3.392,10.784 3.136,10.352 2.896,9.92 L1.856,8.224 L0.416,8.224 L2.768,11.936 L0.224,16 L1.616,16 Z" id="x"></path>
                </g>
                <path id="Path-6" d="M707,4 L714,18 L708,18 L708,153 L877,153 L877,147 L891,154 L877,161 L877,155 L706,155 L706,18 L700,18 L707,4 Z" fill="#636F80" fill-rule="nonzero"></path>
                <g id="axis/label-y" fill="#333333" fill-rule="nonzero">
                    <path d="M687.968,19.344 C689.52,19.344 690.336,18.176 690.88,16.64 L693.808,8.224 L692.512,8.224 L691.12,12.512 C690.912,13.2 690.688,14 690.48,14.704 L690.416,14.704 C690.16,13.984 689.904,13.184 689.648,12.512 L688.08,8.224 L686.704,8.224 L689.824,16.016 L689.648,16.592 C689.328,17.552 688.768,18.24 687.904,18.24 C687.712,18.24 687.52,18.208 687.328,18.144 L687.04,19.184 C687.296,19.28 687.6,19.344 687.968,19.344 Z" id="y"></path>
                </g>
            </g>
            <g id="axis/general-copy-2" transform="translate(496.000000, 6.015343)">
                <g id="axis/label-0" transform="translate(571.000000, 154.000000)" font-family="SourceSansPro-Regular, Source Sans Pro" font-size="16" font-weight="normal">
                    <text id="0"></text>
                </g>
                <g id="axis/label-x" transform="translate(901.000000, 142.000000)" fill="#333333" fill-rule="nonzero">
                    <path d="M1.616,16 L2.656,14.192 C2.928,13.728 3.184,13.248 3.44,12.8 L3.504,12.8 C3.792,13.248 4.08,13.728 4.352,14.192 L5.488,16 L6.928,16 L4.4,12.08 L6.752,8.224 L5.36,8.224 L4.416,9.92 C4.176,10.352 3.952,10.784 3.712,11.216 L3.648,11.216 C3.392,10.784 3.136,10.352 2.896,9.92 L1.856,8.224 L0.416,8.224 L2.768,11.936 L0.224,16 L1.616,16 Z" id="x"></path>
                </g>
                <path id="Path-6" d="M707,4 L714,18 L708,18 L708,153 L877,153 L877,147 L891,154 L877,161 L877,155 L706,155 L706,18 L700,18 L707,4 Z" fill="#636F80" fill-rule="nonzero"></path>
                <g id="axis/label-y" fill="#333333" fill-rule="nonzero">
                    <path d="M687.968,19.344 C689.52,19.344 690.336,18.176 690.88,16.64 L693.808,8.224 L692.512,8.224 L691.12,12.512 C690.912,13.2 690.688,14 690.48,14.704 L690.416,14.704 C690.16,13.984 689.904,13.184 689.648,12.512 L688.08,8.224 L686.704,8.224 L689.824,16.016 L689.648,16.592 C689.328,17.552 688.768,18.24 687.904,18.24 C687.712,18.24 687.52,18.208 687.328,18.144 L687.04,19.184 C687.296,19.28 687.6,19.344 687.968,19.344 Z" id="y"></path>
                </g>
            </g>
            <g id="axis/general-copy" transform="translate(251.000000, 6.015343)">
                <g id="axis/label-0" transform="translate(571.000000, 154.000000)" font-family="SourceSansPro-Regular, Source Sans Pro" font-size="16" font-weight="normal">
                    <text id="0"></text>
                </g>
                <g id="axis/label-x" transform="translate(901.000000, 142.000000)" fill="#333333" fill-rule="nonzero">
                    <path d="M1.616,16 L2.656,14.192 C2.928,13.728 3.184,13.248 3.44,12.8 L3.504,12.8 C3.792,13.248 4.08,13.728 4.352,14.192 L5.488,16 L6.928,16 L4.4,12.08 L6.752,8.224 L5.36,8.224 L4.416,9.92 C4.176,10.352 3.952,10.784 3.712,11.216 L3.648,11.216 C3.392,10.784 3.136,10.352 2.896,9.92 L1.856,8.224 L0.416,8.224 L2.768,11.936 L0.224,16 L1.616,16 Z" id="x"></path>
                </g>
                <path id="Path-6" d="M707,4 L714,18 L708,18 L708,153 L877,153 L877,147 L891,154 L877,161 L877,155 L706,155 L706,18 L700,18 L707,4 Z" fill="#636F80" fill-rule="nonzero"></path>
                <g id="axis/label-y" fill="#333333" fill-rule="nonzero">
                    <path d="M687.968,19.344 C689.52,19.344 690.336,18.176 690.88,16.64 L693.808,8.224 L692.512,8.224 L691.12,12.512 C690.912,13.2 690.688,14 690.48,14.704 L690.416,14.704 C690.16,13.984 689.904,13.184 689.648,12.512 L688.08,8.224 L686.704,8.224 L689.824,16.016 L689.648,16.592 C689.328,17.552 688.768,18.24 687.904,18.24 C687.712,18.24 687.52,18.208 687.328,18.144 L687.04,19.184 C687.296,19.28 687.6,19.344 687.968,19.344 Z" id="y"></path>
                </g>
            </g>
            <g id="3" transform="translate(1216.000000, 14.015343)">
                <path d="M19,18 C19,15.2383993 16.761775,13 14.0003893,13 C11.2390035,13 9,15.2383993 9,18 C9,20.7616007 11.2390035,23 14.0003893,23 C16.761775,23 19,20.7616007 19,18" id="Fill-3" fill="#74B0DE"></path>
                <path d="M13,51 C13,48.2383993 10.761775,46 8.00038926,46 C5.2390035,46 3,48.2383993 3,51 C3,53.7616007 5.2390035,56 8.00038926,56 C10.761775,56 13,53.7616007 13,51" id="Fill-3-Copy" fill="#74B0DE"></path>
                <path d="M31,77 C31,74.2383993 28.761775,72 26.0003893,72 C23.2390035,72 21,74.2383993 21,77 C21,79.7616007 23.2390035,82 26.0003893,82 C28.761775,82 31,79.7616007 31,77" id="Fill-3-Copy-2" fill="#74B0DE"></path>
                <path d="M10,87 C10,84.2383993 7.76177501,82 5.00038926,82 C2.2390035,82 0,84.2383993 0,87 C0,89.7616007 2.2390035,92 5.00038926,92 C7.76177501,92 10,89.7616007 10,87" id="Fill-3-Copy-3" fill="#74B0DE"></path>
                <path d="M54,74 C54,71.2383993 51.761775,69 49.0003893,69 C46.2390035,69 44,71.2383993 44,74 C44,76.7616007 46.2390035,79 49.0003893,79 C51.761775,79 54,76.7616007 54,74" id="Fill-3-Copy-4" fill="#74B0DE"></path>
                <path d="M43,103 C43,100.238399 40.761775,98 38.0003893,98 C35.2390035,98 33,100.238399 33,103 C33,105.761601 35.2390035,108 38.0003893,108 C40.761775,108 43,105.761601 43,103" id="Fill-3-Copy-5" fill="#74B0DE"></path>
                <path d="M19,121 C19,118.238399 16.761775,116 14.0003893,116 C11.2390035,116 9,118.238399 9,121 C9,123.761601 11.2390035,126 14.0003893,126 C16.761775,126 19,123.761601 19,121" id="Fill-3-Copy-6" fill="#74B0DE"></path>
                <path d="M60,128 C60,125.238399 57.761775,123 55.0003893,123 C52.2390035,123 50,125.238399 50,128 C50,130.761601 52.2390035,133 55.0003893,133 C57.761775,133 60,130.761601 60,128" id="Fill-3-Copy-7" fill="#74B0DE"></path>
                <path d="M102,128 C102,125.238399 99.761775,123 97.0003893,123 C94.2390035,123 92,125.238399 92,128 C92,130.761601 94.2390035,133 97.0003893,133 C99.761775,133 102,130.761601 102,128" id="Fill-3-Copy-8" fill="#74B0DE"></path>
                <path d="M135,128 C135,125.238399 132.761775,123 130.000389,123 C127.239004,123 125,125.238399 125,128 C125,130.761601 127.239004,133 130.000389,133 C132.761775,133 135,130.761601 135,128" id="Fill-3-Copy-9" fill="#74B0DE"></path>
                <path d="M120,105 C120,102.238399 117.761775,100 115.000389,100 C112.239004,100 110,102.238399 110,105 C110,107.761601 112.239004,110 115.000389,110 C117.761775,110 120,107.761601 120,105" id="Fill-3-Copy-10" fill="#74B0DE"></path>
                <path d="M88,106 C88,103.238399 85.761775,101 83.0003893,101 C80.2390035,101 78,103.238399 78,106 C78,108.761601 80.2390035,111 83.0003893,111 C85.761775,111 88,108.761601 88,106" id="Fill-3-Copy-15" fill="#74B0DE"></path>
                <path d="M99,65 C99,62.2383993 96.761775,60 94.0003893,60 C91.2390035,60 89,62.2383993 89,65 C89,67.7616007 91.2390035,70 94.0003893,70 C96.761775,70 99,67.7616007 99,65" id="Fill-3-Copy-11" fill="#74B0DE"></path>
                <path d="M78,44 C78,41.2383993 75.761775,39 73.0003893,39 C70.2390035,39 68,41.2383993 68,44 C68,46.7616007 70.2390035,49 73.0003893,49 C75.761775,49 78,46.7616007 78,44" id="Fill-3-Copy-12" fill="#74B0DE"></path>
                <path d="M43,24 C43,21.2383993 40.761775,19 38.0003893,19 C35.2390035,19 33,21.2383993 33,24 C33,26.7616007 35.2390035,29 38.0003893,29 C40.761775,29 43,26.7616007 43,24" id="Fill-3-Copy-13" fill="#74B0DE"></path>
                <path d="M139,28 C139,25.2383993 136.761775,23 134.000389,23 C131.239004,23 129,25.2383993 129,28 C129,30.7616007 131.239004,33 134.000389,33 C136.761775,33 139,30.7616007 139,28" id="Fill-3-Copy-14" fill="#74B0DE"></path>
                <path d="M30,38 C30,35.2383993 27.761775,33 25.0003893,33 C22.2390035,33 20,35.2383993 20,38 C20,40.7616007 22.2390035,43 25.0003893,43 C27.761775,43 30,40.7616007 30,38" id="Fill-17" fill="#F7931E"></path>
                <path d="M22,101 C22,98.2383993 19.761775,96 17.0003893,96 C14.2390035,96 12,98.2383993 12,101 C12,103.761601 14.2390035,106 17.0003893,106 C19.761775,106 22,103.761601 22,101" id="Fill-17-Copy" fill="#F7931E"></path>
                <path d="M66,100 C66,97.2383993 63.761775,95 61.0003893,95 C58.2390035,95 56,97.2383993 56,100 C56,102.761601 58.2390035,105 61.0003893,105 C63.761775,105 66,102.761601 66,100" id="Fill-17-Copy-2" fill="#F7931E"></path>
                <path d="M98,88 C98,85.2383993 95.761775,83 93.0003893,83 C90.2390035,83 88,85.2383993 88,88 C88,90.7616007 90.2390035,93 93.0003893,93 C95.761775,93 98,90.7616007 98,88" id="Fill-17-Copy-3" fill="#F7931E"></path>
                <path d="M78,74 C78,71.2383993 75.761775,69 73.0003893,69 C70.2390035,69 68,71.2383993 68,74 C68,76.7616007 70.2390035,79 73.0003893,79 C75.761775,79 78,76.7616007 78,74" id="Fill-17-Copy-4" fill="#F7931E"></path>
                <path d="M59,45 C59,42.2383993 56.761775,40 54.0003893,40 C51.2390035,40 49,42.2383993 49,45 C49,47.7616007 51.2390035,50 54.0003893,50 C56.761775,50 59,47.7616007 59,45" id="Fill-17-Copy-5" fill="#F7931E"></path>
                <path d="M99,41 C99,38.2383993 96.761775,36 94.0003893,36 C91.2390035,36 89,38.2383993 89,41 C89,43.7616007 91.2390035,46 94.0003893,46 C96.761775,46 99,43.7616007 99,41" id="Fill-17-Copy-6" fill="#F7931E"></path>
                <path d="M68,12 C68,9.23839925 65.761775,7 63.0003893,7 C60.2390035,7 58,9.23839925 58,12 C58,14.7616007 60.2390035,17 63.0003893,17 C65.761775,17 68,14.7616007 68,12" id="Fill-17-Copy-7" fill="#F7931E"></path>
                <path d="M92,19 C92,16.2383993 89.761775,14 87.0003893,14 C84.2390035,14 82,16.2383993 82,19 C82,21.7616007 84.2390035,24 87.0003893,24 C89.761775,24 92,21.7616007 92,19" id="Fill-17-Copy-8" fill="#F7931E"></path>
                <path d="M113,5 C113,2.23839925 110.761775,0 108.000389,0 C105.239004,0 103,2.23839925 103,5 C103,7.76160075 105.239004,10 108.000389,10 C110.761775,10 113,7.76160075 113,5" id="Fill-17-Copy-9" fill="#F7931E"></path>
                <path d="M123,37 C123,34.2383993 120.761775,32 118.000389,32 C115.239004,32 113,34.2383993 113,37 C113,39.7616007 115.239004,42 118.000389,42 C120.761775,42 123,39.7616007 123,37" id="Fill-17-Copy-10" fill="#F7931E"></path>
                <path d="M141,54 C141,51.2383993 138.761775,49 136.000389,49 C133.239004,49 131,51.2383993 131,54 C131,56.7616007 133.239004,59 136.000389,59 C138.761775,59 141,56.7616007 141,54" id="Fill-17-Copy-11" fill="#F7931E"></path>
                <path d="M157,75 C157,72.2383993 154.761775,70 152.000389,70 C149.239004,70 147,72.2383993 147,75 C147,77.7616007 149.239004,80 152.000389,80 C154.761775,80 157,77.7616007 157,75" id="Fill-17-Copy-12" fill="#F7931E"></path>
                <path d="M120,66 C120,63.2383993 117.761775,61 115.000389,61 C112.239004,61 110,63.2383993 110,66 C110,68.7616007 112.239004,71 115.000389,71 C117.761775,71 120,68.7616007 120,66" id="Fill-17-Copy-13" fill="#F7931E"></path>
                <path d="M130,88 C130,85.2383993 127.761775,83 125.000389,83 C122.239004,83 120,85.2383993 120,88 C120,90.7616007 122.239004,93 125.000389,93 C127.761775,93 130,90.7616007 130,88" id="Fill-17-Copy-14" fill="#F7931E"></path>
                <path d="M151,113 C151,110.238399 148.761775,108 146.000389,108 C143.239004,108 141,110.238399 141,113 C141,115.761601 143.239004,118 146.000389,118 C148.761775,118 151,115.761601 151,113" id="Fill-17-Copy-15" fill="#F7931E"></path>
            </g>
            <g id="2" transform="translate(971.000000, 14.015343)">
                <path d="M19,18 C19,15.2383993 16.761775,13 14.0003893,13 C11.2390035,13 9,15.2383993 9,18 C9,20.7616007 11.2390035,23 14.0003893,23 C16.761775,23 19,20.7616007 19,18" id="Fill-3" fill="#74B0DE"></path>
                <path d="M13,51 C13,48.2383993 10.761775,46 8.00038926,46 C5.2390035,46 3,48.2383993 3,51 C3,53.7616007 5.2390035,56 8.00038926,56 C10.761775,56 13,53.7616007 13,51" id="Fill-3-Copy" fill="#74B0DE"></path>
                <path d="M31,77 C31,74.2383993 28.761775,72 26.0003893,72 C23.2390035,72 21,74.2383993 21,77 C21,79.7616007 23.2390035,82 26.0003893,82 C28.761775,82 31,79.7616007 31,77" id="Fill-3-Copy-2" fill="#74B0DE"></path>
                <path d="M10,87 C10,84.2383993 7.76177501,82 5.00038926,82 C2.2390035,82 0,84.2383993 0,87 C0,89.7616007 2.2390035,92 5.00038926,92 C7.76177501,92 10,89.7616007 10,87" id="Fill-3-Copy-3" fill="#74B0DE"></path>
                <path d="M54,74 C54,71.2383993 51.761775,69 49.0003893,69 C46.2390035,69 44,71.2383993 44,74 C44,76.7616007 46.2390035,79 49.0003893,79 C51.761775,79 54,76.7616007 54,74" id="Fill-3-Copy-4" fill="#74B0DE"></path>
                <path d="M43,103 C43,100.238399 40.761775,98 38.0003893,98 C35.2390035,98 33,100.238399 33,103 C33,105.761601 35.2390035,108 38.0003893,108 C40.761775,108 43,105.761601 43,103" id="Fill-3-Copy-5" fill="#74B0DE"></path>
                <path d="M19,121 C19,118.238399 16.761775,116 14.0003893,116 C11.2390035,116 9,118.238399 9,121 C9,123.761601 11.2390035,126 14.0003893,126 C16.761775,126 19,123.761601 19,121" id="Fill-3-Copy-6" fill="#74B0DE"></path>
                <path d="M60,128 C60,125.238399 57.761775,123 55.0003893,123 C52.2390035,123 50,125.238399 50,128 C50,130.761601 52.2390035,133 55.0003893,133 C57.761775,133 60,130.761601 60,128" id="Fill-3-Copy-7" fill="#74B0DE"></path>
                <path d="M102,128 C102,125.238399 99.761775,123 97.0003893,123 C94.2390035,123 92,125.238399 92,128 C92,130.761601 94.2390035,133 97.0003893,133 C99.761775,133 102,130.761601 102,128" id="Fill-3-Copy-8" fill="#74B0DE"></path>
                <path d="M135,128 C135,125.238399 132.761775,123 130.000389,123 C127.239004,123 125,125.238399 125,128 C125,130.761601 127.239004,133 130.000389,133 C132.761775,133 135,130.761601 135,128" id="Fill-3-Copy-9" fill="#74B0DE"></path>
                <path d="M120,105 C120,102.238399 117.761775,100 115.000389,100 C112.239004,100 110,102.238399 110,105 C110,107.761601 112.239004,110 115.000389,110 C117.761775,110 120,107.761601 120,105" id="Fill-3-Copy-10" fill="#74B0DE"></path>
                <path d="M88,106 C88,103.238399 85.761775,101 83.0003893,101 C80.2390035,101 78,103.238399 78,106 C78,108.761601 80.2390035,111 83.0003893,111 C85.761775,111 88,108.761601 88,106" id="Fill-3-Copy-15" fill="#74B0DE"></path>
                <path d="M99,65 C99,62.2383993 96.761775,60 94.0003893,60 C91.2390035,60 89,62.2383993 89,65 C89,67.7616007 91.2390035,70 94.0003893,70 C96.761775,70 99,67.7616007 99,65" id="Fill-3-Copy-11" fill="#74B0DE"></path>
                <path d="M78,44 C78,41.2383993 75.761775,39 73.0003893,39 C70.2390035,39 68,41.2383993 68,44 C68,46.7616007 70.2390035,49 73.0003893,49 C75.761775,49 78,46.7616007 78,44" id="Fill-3-Copy-12" fill="#74B0DE"></path>
                <path d="M43,24 C43,21.2383993 40.761775,19 38.0003893,19 C35.2390035,19 33,21.2383993 33,24 C33,26.7616007 35.2390035,29 38.0003893,29 C40.761775,29 43,26.7616007 43,24" id="Fill-3-Copy-13" fill="#74B0DE"></path>
                <path d="M139,28 C139,25.2383993 136.761775,23 134.000389,23 C131.239004,23 129,25.2383993 129,28 C129,30.7616007 131.239004,33 134.000389,33 C136.761775,33 139,30.7616007 139,28" id="Fill-3-Copy-14" fill="#74B0DE"></path>
                <path d="M30,38 C30,35.2383993 27.761775,33 25.0003893,33 C22.2390035,33 20,35.2383993 20,38 C20,40.7616007 22.2390035,43 25.0003893,43 C27.761775,43 30,40.7616007 30,38" id="Fill-17" fill="#F7931E"></path>
                <path d="M22,101 C22,98.2383993 19.761775,96 17.0003893,96 C14.2390035,96 12,98.2383993 12,101 C12,103.761601 14.2390035,106 17.0003893,106 C19.761775,106 22,103.761601 22,101" id="Fill-17-Copy" fill="#F7931E"></path>
                <path d="M66,100 C66,97.2383993 63.761775,95 61.0003893,95 C58.2390035,95 56,97.2383993 56,100 C56,102.761601 58.2390035,105 61.0003893,105 C63.761775,105 66,102.761601 66,100" id="Fill-17-Copy-2" fill="#F7931E"></path>
                <path d="M98,88 C98,85.2383993 95.761775,83 93.0003893,83 C90.2390035,83 88,85.2383993 88,88 C88,90.7616007 90.2390035,93 93.0003893,93 C95.761775,93 98,90.7616007 98,88" id="Fill-17-Copy-3" fill="#F7931E"></path>
                <path d="M78,74 C78,71.2383993 75.761775,69 73.0003893,69 C70.2390035,69 68,71.2383993 68,74 C68,76.7616007 70.2390035,79 73.0003893,79 C75.761775,79 78,76.7616007 78,74" id="Fill-17-Copy-4" fill="#F7931E"></path>
                <path d="M59,45 C59,42.2383993 56.761775,40 54.0003893,40 C51.2390035,40 49,42.2383993 49,45 C49,47.7616007 51.2390035,50 54.0003893,50 C56.761775,50 59,47.7616007 59,45" id="Fill-17-Copy-5" fill="#F7931E"></path>
                <path d="M99,41 C99,38.2383993 96.761775,36 94.0003893,36 C91.2390035,36 89,38.2383993 89,41 C89,43.7616007 91.2390035,46 94.0003893,46 C96.761775,46 99,43.7616007 99,41" id="Fill-17-Copy-6" fill="#F7931E"></path>
                <path d="M68,12 C68,9.23839925 65.761775,7 63.0003893,7 C60.2390035,7 58,9.23839925 58,12 C58,14.7616007 60.2390035,17 63.0003893,17 C65.761775,17 68,14.7616007 68,12" id="Fill-17-Copy-7" fill="#F7931E"></path>
                <path d="M92,19 C92,16.2383993 89.761775,14 87.0003893,14 C84.2390035,14 82,16.2383993 82,19 C82,21.7616007 84.2390035,24 87.0003893,24 C89.761775,24 92,21.7616007 92,19" id="Fill-17-Copy-8" fill="#F7931E"></path>
                <path d="M113,5 C113,2.23839925 110.761775,0 108.000389,0 C105.239004,0 103,2.23839925 103,5 C103,7.76160075 105.239004,10 108.000389,10 C110.761775,10 113,7.76160075 113,5" id="Fill-17-Copy-9" fill="#F7931E"></path>
                <path d="M123,37 C123,34.2383993 120.761775,32 118.000389,32 C115.239004,32 113,34.2383993 113,37 C113,39.7616007 115.239004,42 118.000389,42 C120.761775,42 123,39.7616007 123,37" id="Fill-17-Copy-10" fill="#F7931E"></path>
                <path d="M141,54 C141,51.2383993 138.761775,49 136.000389,49 C133.239004,49 131,51.2383993 131,54 C131,56.7616007 133.239004,59 136.000389,59 C138.761775,59 141,56.7616007 141,54" id="Fill-17-Copy-11" fill="#F7931E"></path>
                <path d="M157,75 C157,72.2383993 154.761775,70 152.000389,70 C149.239004,70 147,72.2383993 147,75 C147,77.7616007 149.239004,80 152.000389,80 C154.761775,80 157,77.7616007 157,75" id="Fill-17-Copy-12" fill="#F7931E"></path>
                <path d="M120,66 C120,63.2383993 117.761775,61 115.000389,61 C112.239004,61 110,63.2383993 110,66 C110,68.7616007 112.239004,71 115.000389,71 C117.761775,71 120,68.7616007 120,66" id="Fill-17-Copy-13" fill="#F7931E"></path>
                <path d="M130,88 C130,85.2383993 127.761775,83 125.000389,83 C122.239004,83 120,85.2383993 120,88 C120,90.7616007 122.239004,93 125.000389,93 C127.761775,93 130,90.7616007 130,88" id="Fill-17-Copy-14" fill="#F7931E"></path>
                <path d="M151,113 C151,110.238399 148.761775,108 146.000389,108 C143.239004,108 141,110.238399 141,113 C141,115.761601 143.239004,118 146.000389,118 C148.761775,118 151,115.761601 151,113" id="Fill-17-Copy-15" fill="#F7931E"></path>
            </g>
            <g id="1" transform="translate(720.000000, 14.015343)">
                <path d="M19,18 C19,15.2383993 16.761775,13 14.0003893,13 C11.2390035,13 9,15.2383993 9,18 C9,20.7616007 11.2390035,23 14.0003893,23 C16.761775,23 19,20.7616007 19,18" id="Fill-3" fill="#74B0DE"></path>
                <path d="M13,51 C13,48.2383993 10.761775,46 8.00038926,46 C5.2390035,46 3,48.2383993 3,51 C3,53.7616007 5.2390035,56 8.00038926,56 C10.761775,56 13,53.7616007 13,51" id="Fill-3-Copy" fill="#74B0DE"></path>
                <path d="M31,77 C31,74.2383993 28.761775,72 26.0003893,72 C23.2390035,72 21,74.2383993 21,77 C21,79.7616007 23.2390035,82 26.0003893,82 C28.761775,82 31,79.7616007 31,77" id="Fill-3-Copy-2" fill="#74B0DE"></path>
                <path d="M10,87 C10,84.2383993 7.76177501,82 5.00038926,82 C2.2390035,82 0,84.2383993 0,87 C0,89.7616007 2.2390035,92 5.00038926,92 C7.76177501,92 10,89.7616007 10,87" id="Fill-3-Copy-3" fill="#74B0DE"></path>
                <path d="M54,74 C54,71.2383993 51.761775,69 49.0003893,69 C46.2390035,69 44,71.2383993 44,74 C44,76.7616007 46.2390035,79 49.0003893,79 C51.761775,79 54,76.7616007 54,74" id="Fill-3-Copy-4" fill="#74B0DE"></path>
                <path d="M43,103 C43,100.238399 40.761775,98 38.0003893,98 C35.2390035,98 33,100.238399 33,103 C33,105.761601 35.2390035,108 38.0003893,108 C40.761775,108 43,105.761601 43,103" id="Fill-3-Copy-5" fill="#74B0DE"></path>
                <path d="M19,121 C19,118.238399 16.761775,116 14.0003893,116 C11.2390035,116 9,118.238399 9,121 C9,123.761601 11.2390035,126 14.0003893,126 C16.761775,126 19,123.761601 19,121" id="Fill-3-Copy-6" fill="#74B0DE"></path>
                <path d="M60,128 C60,125.238399 57.761775,123 55.0003893,123 C52.2390035,123 50,125.238399 50,128 C50,130.761601 52.2390035,133 55.0003893,133 C57.761775,133 60,130.761601 60,128" id="Fill-3-Copy-7" fill="#74B0DE"></path>
                <path d="M102,128 C102,125.238399 99.761775,123 97.0003893,123 C94.2390035,123 92,125.238399 92,128 C92,130.761601 94.2390035,133 97.0003893,133 C99.761775,133 102,130.761601 102,128" id="Fill-3-Copy-8" fill="#74B0DE"></path>
                <path d="M135,128 C135,125.238399 132.761775,123 130.000389,123 C127.239004,123 125,125.238399 125,128 C125,130.761601 127.239004,133 130.000389,133 C132.761775,133 135,130.761601 135,128" id="Fill-3-Copy-9" fill="#74B0DE"></path>
                <path d="M120,105 C120,102.238399 117.761775,100 115.000389,100 C112.239004,100 110,102.238399 110,105 C110,107.761601 112.239004,110 115.000389,110 C117.761775,110 120,107.761601 120,105" id="Fill-3-Copy-10" fill="#74B0DE"></path>
                <path d="M88,106 C88,103.238399 85.761775,101 83.0003893,101 C80.2390035,101 78,103.238399 78,106 C78,108.761601 80.2390035,111 83.0003893,111 C85.761775,111 88,108.761601 88,106" id="Fill-3-Copy-15" fill="#74B0DE"></path>
                <path d="M99,65 C99,62.2383993 96.761775,60 94.0003893,60 C91.2390035,60 89,62.2383993 89,65 C89,67.7616007 91.2390035,70 94.0003893,70 C96.761775,70 99,67.7616007 99,65" id="Fill-3-Copy-11" fill="#74B0DE"></path>
                <path d="M78,44 C78,41.2383993 75.761775,39 73.0003893,39 C70.2390035,39 68,41.2383993 68,44 C68,46.7616007 70.2390035,49 73.0003893,49 C75.761775,49 78,46.7616007 78,44" id="Fill-3-Copy-12" fill="#74B0DE"></path>
                <path d="M43,24 C43,21.2383993 40.761775,19 38.0003893,19 C35.2390035,19 33,21.2383993 33,24 C33,26.7616007 35.2390035,29 38.0003893,29 C40.761775,29 43,26.7616007 43,24" id="Fill-3-Copy-13" fill="#74B0DE"></path>
                <path d="M139,28 C139,25.2383993 136.761775,23 134.000389,23 C131.239004,23 129,25.2383993 129,28 C129,30.7616007 131.239004,33 134.000389,33 C136.761775,33 139,30.7616007 139,28" id="Fill-3-Copy-14" fill="#74B0DE"></path>
                <path d="M30,38 C30,35.2383993 27.761775,33 25.0003893,33 C22.2390035,33 20,35.2383993 20,38 C20,40.7616007 22.2390035,43 25.0003893,43 C27.761775,43 30,40.7616007 30,38" id="Fill-17" fill="#F7931E"></path>
                <path d="M22,101 C22,98.2383993 19.761775,96 17.0003893,96 C14.2390035,96 12,98.2383993 12,101 C12,103.761601 14.2390035,106 17.0003893,106 C19.761775,106 22,103.761601 22,101" id="Fill-17-Copy" fill="#F7931E"></path>
                <path d="M66,100 C66,97.2383993 63.761775,95 61.0003893,95 C58.2390035,95 56,97.2383993 56,100 C56,102.761601 58.2390035,105 61.0003893,105 C63.761775,105 66,102.761601 66,100" id="Fill-17-Copy-2" fill="#F7931E"></path>
                <path d="M98,88 C98,85.2383993 95.761775,83 93.0003893,83 C90.2390035,83 88,85.2383993 88,88 C88,90.7616007 90.2390035,93 93.0003893,93 C95.761775,93 98,90.7616007 98,88" id="Fill-17-Copy-3" fill="#F7931E"></path>
                <path d="M78,74 C78,71.2383993 75.761775,69 73.0003893,69 C70.2390035,69 68,71.2383993 68,74 C68,76.7616007 70.2390035,79 73.0003893,79 C75.761775,79 78,76.7616007 78,74" id="Fill-17-Copy-4" fill="#F7931E"></path>
                <path d="M59,45 C59,42.2383993 56.761775,40 54.0003893,40 C51.2390035,40 49,42.2383993 49,45 C49,47.7616007 51.2390035,50 54.0003893,50 C56.761775,50 59,47.7616007 59,45" id="Fill-17-Copy-5" fill="#F7931E"></path>
                <path d="M99,41 C99,38.2383993 96.761775,36 94.0003893,36 C91.2390035,36 89,38.2383993 89,41 C89,43.7616007 91.2390035,46 94.0003893,46 C96.761775,46 99,43.7616007 99,41" id="Fill-17-Copy-6" fill="#F7931E"></path>
                <path d="M68,12 C68,9.23839925 65.761775,7 63.0003893,7 C60.2390035,7 58,9.23839925 58,12 C58,14.7616007 60.2390035,17 63.0003893,17 C65.761775,17 68,14.7616007 68,12" id="Fill-17-Copy-7" fill="#F7931E"></path>
                <path d="M92,19 C92,16.2383993 89.761775,14 87.0003893,14 C84.2390035,14 82,16.2383993 82,19 C82,21.7616007 84.2390035,24 87.0003893,24 C89.761775,24 92,21.7616007 92,19" id="Fill-17-Copy-8" fill="#F7931E"></path>
                <path d="M113,5 C113,2.23839925 110.761775,0 108.000389,0 C105.239004,0 103,2.23839925 103,5 C103,7.76160075 105.239004,10 108.000389,10 C110.761775,10 113,7.76160075 113,5" id="Fill-17-Copy-9" fill="#F7931E"></path>
                <path d="M123,37 C123,34.2383993 120.761775,32 118.000389,32 C115.239004,32 113,34.2383993 113,37 C113,39.7616007 115.239004,42 118.000389,42 C120.761775,42 123,39.7616007 123,37" id="Fill-17-Copy-10" fill="#F7931E"></path>
                <path d="M141,54 C141,51.2383993 138.761775,49 136.000389,49 C133.239004,49 131,51.2383993 131,54 C131,56.7616007 133.239004,59 136.000389,59 C138.761775,59 141,56.7616007 141,54" id="Fill-17-Copy-11" fill="#F7931E"></path>
                <path d="M157,75 C157,72.2383993 154.761775,70 152.000389,70 C149.239004,70 147,72.2383993 147,75 C147,77.7616007 149.239004,80 152.000389,80 C154.761775,80 157,77.7616007 157,75" id="Fill-17-Copy-12" fill="#F7931E"></path>
                <path d="M120,66 C120,63.2383993 117.761775,61 115.000389,61 C112.239004,61 110,63.2383993 110,66 C110,68.7616007 112.239004,71 115.000389,71 C117.761775,71 120,68.7616007 120,66" id="Fill-17-Copy-13" fill="#F7931E"></path>
                <path d="M130,88 C130,85.2383993 127.761775,83 125.000389,83 C122.239004,83 120,85.2383993 120,88 C120,90.7616007 122.239004,93 125.000389,93 C127.761775,93 130,90.7616007 130,88" id="Fill-17-Copy-14" fill="#F7931E"></path>
                <path d="M151,113 C151,110.238399 148.761775,108 146.000389,108 C143.239004,108 141,110.238399 141,113 C141,115.761601 143.239004,118 146.000389,118 C148.761775,118 151,115.761601 151,113" id="Fill-17-Copy-15" fill="#F7931E"></path>
            </g>
            <path d="M769,-4.54747351e-13 C764,13.0153427 746.831112,141.015343 885.915556,131.015343" id="Path-47" stroke="#636F80" stroke-width="2"></path>
            <path d="M1014,12.5125103 C1020,22.088578 1027.71262,39.0153427 1022.21697,43.0153427 C1016.72132,47.0153427 1009.54829,46.5240528 998.311433,43.7335678 C987.074572,40.9430829 981,56.0153427 994.503362,63.0153427 C1008.00672,70.0153427 1023.05658,71.1377462 1028.52829,67.0765445 C1034,63.0153427 1031.46252,53.4742549 1034.77325,49.4742549 C1038.08398,45.4742549 1046.71053,46.0153427 1054,52.0153427 C1061.28947,58.0153427 1072.13785,73.0819771 1073.47578,75.4618313 C1074.81372,77.8416855 1076,82.0153427 1073,85.0153427 C1070,88.0153427 1064,86.9412369 1056.39354,81.7378923 C1048.78709,76.5345477 1035.86052,74.0153427 1029,89.0153427 C1022.13948,104.015343 1023,114.015343 1025,119.015343 C1027,124.015343 1037.5,127.015343 1044,117.015343 C1050.5,107.015343 1056.14776,111.171486 1059.57388,112.593414 C1063,114.015343 1065.17423,113.606542 1074.36052,108.236925 C1083.5468,102.867307 1089.96244,111.108621 1093.9416,115.609849 C1097.92077,120.111076 1118,145.686335 1132.37481,150.963274" id="Path-48" stroke="#636F80" stroke-width="2"></path>
            <path d="M1257.15341,12.6105684 C1258.15686,17.6745469 1261.62536,24.3068741 1264.50825,28.6611084 C1267.39114,33.0153427 1272.25124,39.2697939 1266.36823,44.1149926 C1260.48522,48.9601914 1252,48.8269062 1247,47.0153427 C1242,45.2037792 1235.83703,41.0153427 1230.91851,47.0153427 C1226,53.0153427 1231.13235,60.5119685 1235,63.5114512 C1238.86765,66.5109338 1248.92647,71.370297 1257.15341,71.370297 C1265.38035,71.370297 1267.97818,71.8667079 1272.97818,65.8667079 C1277.97818,59.8667079 1279.36569,56.5139748 1281.31198,52.0153427 C1283.25827,47.5167105 1287.6354,43.6519495 1293.53925,49.5337909 C1299.44311,55.4156324 1304.24905,61.0153427 1308,63.0153427 C1311.75095,65.0153427 1317.76246,66.6938711 1324.76246,64.5678988 C1331.76246,62.4419265 1339.2666,59.9156927 1341,52.0153427 C1342.7334,44.1149926 1341.22173,35.9204274 1343.11086,33.0153427 C1345,30.110258 1350,28.1563367 1355,32.0153427 C1360,35.8743486 1360.33373,41.2357396 1359.08251,44.6229371 C1357.83128,48.0101345 1352.6708,55.0153427 1347.6708,58.0153427 C1342.6708,61.0153427 1334,65.8667079 1328.38101,69.09346 C1322.76203,72.3202121 1317.64425,82.0134889 1315.41867,85.0153427 C1313.19309,88.0171965 1309.33012,94.0153427 1303,89.0153427 C1296.66988,84.0153427 1290.82766,80.0153427 1287.30384,80.0153427 C1283.78003,80.0153427 1279.94692,84.0153427 1277,88.0153427 C1274.05308,92.0153427 1268.02057,97.1061331 1266,98.6346698 C1263.97943,100.163206 1261.92222,101.311209 1252.92222,100.163206 C1243.92222,99.0152044 1236,101.081325 1230,104.497798 C1224,107.91427 1220,116.015343 1224,120.015343 C1228,124.015343 1233.2353,125.015343 1238.86765,120.015343 C1244.5,115.015343 1247.43088,107.951497 1255.42901,107.951497 C1263.42715,107.951497 1264.23995,112.985456 1267.87172,121.039315 C1271.50349,129.093175 1277.19538,131.573749 1282,124.015343 C1286.80462,116.456937 1288.35074,113.654665 1291.43376,112.611408 C1294.51678,111.568151 1297.74497,112.101857 1301.83601,113.0586 C1305.92706,114.015343 1311.37677,114.409662 1315.41867,111.409662 C1319.46056,108.409662 1322,105.015343 1329,106.015343 C1336,107.015343 1340.75886,116.841933 1343.11086,121.465445 C1345.46286,126.088957 1351.25122,138.156561 1355,141.24173 C1358.74878,144.3269 1366.40484,147.765306 1370.11691,148.587445" id="Path-49" stroke="#636F80" stroke-width="2"></path>
        </g>
        <g id="Group-2" transform="translate(97.000000, 220.984657)" fill="#333333" fill-rule="nonzero">
            <path d="M3.076,16 L3.076,11.072 L7.94,11.072 L7.94,16 L9.284,16 L9.284,5.504 L7.94,5.504 L7.94,9.888 L3.076,9.888 L3.076,5.504 L1.732,5.504 L1.732,16 L3.076,16 Z M15.172,16.192 C16.244,16.192 17.076,15.872 17.748,15.392 L17.284,14.544 C16.74,14.912 16.084,15.12 15.332,15.12 C13.86,15.12 12.884,14.064 12.772,12.464 L18.004,12.464 C18.052,12.208 18.068,11.968 18.068,11.68 C18.068,9.44 16.932,8.032 14.948,8.032 C13.172,8.032 11.46,9.584 11.46,12.112 C11.46,14.688 13.092,16.192 15.172,16.192 Z M16.884,11.44 L12.772,11.44 C12.932,9.952 13.892,9.088 14.98,9.088 C16.164,9.088 16.884,9.904 16.884,11.44 Z M20.244,18.752 L20.244,16 L25.556,16 L25.556,18.752 L26.692,18.752 L26.836,15.76 L26.836,14.912 L25.7,14.912 L25.7,8.224 L20.852,8.224 L20.436,11.664 C20.132,14.16 19.78,14.688 19.348,14.912 L18.964,14.912 L18.964,15.76 L19.108,18.752 L20.244,18.752 Z M24.372,14.912 L20.772,14.912 C21.124,14.352 21.428,13.44 21.604,11.92 L21.908,9.296 L24.372,9.296 L24.372,14.912 Z M31.524,16.192 C33.428,16.192 35.14,14.704 35.14,12.128 C35.14,9.52 33.428,8.032 31.524,8.032 C29.62,8.032 27.924,9.52 27.924,12.128 C27.924,14.704 29.62,16.192 31.524,16.192 Z M31.524,15.088 C30.196,15.088 29.3,13.904 29.3,12.128 C29.3,10.336 30.196,9.136 31.524,9.136 C32.868,9.136 33.764,10.336 33.764,12.128 C33.764,13.904 32.868,15.088 31.524,15.088 Z M40.196,16.192 C42.1,16.192 43.812,14.704 43.812,12.128 C43.812,9.52 42.1,8.032 40.196,8.032 C38.292,8.032 36.596,9.52 36.596,12.128 C36.596,14.704 38.292,16.192 40.196,16.192 Z M40.196,15.088 C38.868,15.088 37.972,13.904 37.972,12.128 C37.972,10.336 38.868,9.136 40.196,9.136 C41.54,9.136 42.436,10.336 42.436,12.128 C42.436,13.904 41.54,15.088 40.196,15.088 Z M49.044,16.192 C50.948,16.192 52.468,14.624 52.468,12.144 C52.468,9.872 51.188,8.512 49.348,8.512 C48.372,8.512 47.412,8.96 46.724,9.808 C46.964,6.608 48.036,6.4 50.532,6.032 C51.188,5.936 51.732,5.792 52.148,5.52 L51.876,4.32 C51.396,4.544 51.124,4.624 50.26,4.752 C47.3,5.2 45.38,6.032 45.38,11.28 C45.38,14.416 46.724,16.192 49.044,16.192 Z M49.044,15.088 C47.46,15.088 46.66,13.776 46.66,11.536 L46.66,10.928 L46.66,10.928 C47.444,9.872 48.26,9.536 49.012,9.536 C50.356,9.536 51.092,10.544 51.092,12.144 C51.092,13.904 50.244,15.088 49.044,15.088 Z M54.58,19.344 C56.132,19.344 56.948,18.176 57.492,16.64 L60.42,8.224 L59.124,8.224 L57.732,12.512 C57.524,13.2 57.3,14 57.092,14.704 L57.028,14.704 C56.772,13.984 56.516,13.184 56.26,12.512 L54.692,8.224 L53.316,8.224 L56.436,16.016 L56.26,16.592 C55.94,17.552 55.38,18.24 54.516,18.24 C54.324,18.24 54.132,18.208 53.94,18.144 L53.652,19.184 C53.908,19.28 54.212,19.344 54.58,19.344 Z M67.508,16 L67.508,8.224 L66.18,8.224 L66.18,11.84 C65.732,11.936 65.38,11.984 64.916,11.984 C63.508,11.984 62.884,11.504 62.884,10.352 L62.884,8.224 L61.556,8.224 L61.556,10.352 C61.556,12.288 62.692,13.072 64.66,13.072 C65.348,13.072 65.636,13.008 66.18,12.912 L66.18,16 L67.508,16 Z M73.268,16.192 C74.34,16.192 75.172,15.872 75.844,15.392 L75.38,14.544 C74.836,14.912 74.18,15.12 73.428,15.12 C71.956,15.12 70.98,14.064 70.868,12.464 L76.1,12.464 C76.148,12.208 76.164,11.968 76.164,11.68 C76.164,9.44 75.028,8.032 73.044,8.032 C71.268,8.032 69.556,9.584 69.556,12.112 C69.556,14.688 71.188,16.192 73.268,16.192 Z M74.98,11.44 L70.868,11.44 C71.028,9.952 71.988,9.088 73.076,9.088 C74.26,9.088 74.98,9.904 74.98,11.44 Z M79.396,16 L79.396,12.544 L83.124,12.544 L83.124,16 L84.452,16 L84.452,8.224 L83.124,8.224 L83.124,11.376 L79.396,11.376 L79.396,8.224 L78.068,8.224 L78.068,16 L79.396,16 Z M88.484,16 L91.252,11.616 C91.556,11.136 91.956,10.432 92.26,9.84 L92.324,9.84 C92.244,10.96 92.196,11.92 92.196,12.752 L92.196,16 L93.46,16 L93.46,8.224 L92.052,8.224 L89.268,12.624 C88.964,13.104 88.564,13.824 88.26,14.384 L88.196,14.384 C88.276,13.28 88.34,12.304 88.34,11.472 L88.34,8.224 L87.06,8.224 L87.06,16 L88.484,16 Z M99.22,16.192 C100.292,16.192 101.124,15.872 101.796,15.392 L101.332,14.544 C100.788,14.912 100.132,15.12 99.38,15.12 C97.908,15.12 96.932,14.064 96.82,12.464 L102.052,12.464 C102.1,12.208 102.116,11.968 102.116,11.68 C102.116,9.44 100.98,8.032 98.996,8.032 C97.22,8.032 95.508,9.584 95.508,12.112 C95.508,14.688 97.14,16.192 99.22,16.192 Z M100.932,11.44 L96.82,11.44 C96.98,9.952 97.94,9.088 99.028,9.088 C100.212,9.088 100.932,9.904 100.932,11.44 Z" id="Недообучение"></path>
            <path d="M499.324,16 L499.324,6.64 L504.076,6.64 L504.076,16 L505.42,16 L505.42,5.504 L497.98,5.504 L497.98,16 L499.324,16 Z M511.308,16.192 C512.38,16.192 513.212,15.872 513.884,15.392 L513.42,14.544 C512.876,14.912 512.22,15.12 511.468,15.12 C509.996,15.12 509.02,14.064 508.908,12.464 L514.14,12.464 C514.188,12.208 514.204,11.968 514.204,11.68 C514.204,9.44 513.068,8.032 511.084,8.032 C509.308,8.032 507.596,9.584 507.596,12.112 C507.596,14.688 509.228,16.192 511.308,16.192 Z M513.02,11.44 L508.908,11.44 C509.068,9.952 510.028,9.088 511.116,9.088 C512.3,9.088 513.02,9.904 513.02,11.44 Z M517.436,19.28 L517.436,16.656 L517.404,15.296 C518.108,15.856 518.844,16.192 519.548,16.192 C521.324,16.192 522.924,14.64 522.924,12 C522.924,9.584 521.836,8.032 519.836,8.032 C518.94,8.032 518.06,8.528 517.356,9.12 L517.308,9.12 L517.196,8.224 L516.108,8.224 L516.108,19.28 L517.436,19.28 Z M519.324,15.072 C518.812,15.072 518.14,14.864 517.436,14.272 L517.436,10.208 C518.188,9.504 518.844,9.152 519.5,9.152 C520.956,9.152 521.548,10.288 521.548,12 C521.548,13.92 520.604,15.072 519.324,15.072 Z M528.124,16.192 C529.196,16.192 530.028,15.872 530.7,15.392 L530.236,14.544 C529.692,14.912 529.036,15.12 528.284,15.12 C526.812,15.12 525.836,14.064 525.724,12.464 L530.956,12.464 C531.004,12.208 531.02,11.968 531.02,11.68 C531.02,9.44 529.884,8.032 527.9,8.032 C526.124,8.032 524.412,9.584 524.412,12.112 C524.412,14.688 526.044,16.192 528.124,16.192 Z M529.836,11.44 L525.724,11.44 C525.884,9.952 526.844,9.088 527.932,9.088 C529.116,9.088 529.836,9.904 529.836,11.44 Z M535.948,16.192 C537.852,16.192 539.564,14.704 539.564,12.128 C539.564,9.52 537.852,8.032 535.948,8.032 C534.044,8.032 532.348,9.52 532.348,12.128 C532.348,14.704 534.044,16.192 535.948,16.192 Z M535.948,15.088 C534.62,15.088 533.724,13.904 533.724,12.128 C533.724,10.336 534.62,9.136 535.948,9.136 C537.292,9.136 538.188,10.336 538.188,12.128 C538.188,13.904 537.292,15.088 535.948,15.088 Z M544.796,16.192 C546.7,16.192 548.22,14.624 548.22,12.144 C548.22,9.872 546.94,8.512 545.1,8.512 C544.124,8.512 543.164,8.96 542.476,9.808 C542.716,6.608 543.788,6.4 546.284,6.032 C546.94,5.936 547.484,5.792 547.9,5.52 L547.628,4.32 C547.148,4.544 546.876,4.624 546.012,4.752 C543.052,5.2 541.132,6.032 541.132,11.28 C541.132,14.416 542.476,16.192 544.796,16.192 Z M544.796,15.088 C543.212,15.088 542.412,13.776 542.412,11.536 L542.412,10.928 L542.412,10.928 C543.196,9.872 544.012,9.536 544.764,9.536 C546.108,9.536 546.844,10.544 546.844,12.144 C546.844,13.904 545.996,15.088 544.796,15.088 Z M550.332,19.344 C551.884,19.344 552.7,18.176 553.244,16.64 L556.172,8.224 L554.876,8.224 L553.484,12.512 C553.276,13.2 553.052,14 552.844,14.704 L552.78,14.704 C552.524,13.984 552.268,13.184 552.012,12.512 L550.444,8.224 L549.068,8.224 L552.188,16.016 L552.012,16.592 C551.692,17.552 551.132,18.24 550.268,18.24 C550.076,18.24 549.884,18.208 549.692,18.144 L549.404,19.184 C549.66,19.28 549.964,19.344 550.332,19.344 Z M563.26,16 L563.26,8.224 L561.932,8.224 L561.932,11.84 C561.484,11.936 561.132,11.984 560.668,11.984 C559.26,11.984 558.636,11.504 558.636,10.352 L558.636,8.224 L557.308,8.224 L557.308,10.352 C557.308,12.288 558.444,13.072 560.412,13.072 C561.1,13.072 561.388,13.008 561.932,12.912 L561.932,16 L563.26,16 Z M569.02,16.192 C570.092,16.192 570.924,15.872 571.596,15.392 L571.132,14.544 C570.588,14.912 569.932,15.12 569.18,15.12 C567.708,15.12 566.732,14.064 566.62,12.464 L571.852,12.464 C571.9,12.208 571.916,11.968 571.916,11.68 C571.916,9.44 570.78,8.032 568.796,8.032 C567.02,8.032 565.308,9.584 565.308,12.112 C565.308,14.688 566.94,16.192 569.02,16.192 Z M570.732,11.44 L566.62,11.44 C566.78,9.952 567.74,9.088 568.828,9.088 C570.012,9.088 570.732,9.904 570.732,11.44 Z M575.148,16 L575.148,12.544 L578.876,12.544 L578.876,16 L580.204,16 L580.204,8.224 L578.876,8.224 L578.876,11.376 L575.148,11.376 L575.148,8.224 L573.82,8.224 L573.82,16 L575.148,16 Z M584.236,16 L587.004,11.616 C587.308,11.136 587.708,10.432 588.012,9.84 L588.076,9.84 C587.996,10.96 587.948,11.92 587.948,12.752 L587.948,16 L589.212,16 L589.212,8.224 L587.804,8.224 L585.02,12.624 C584.716,13.104 584.316,13.824 584.012,14.384 L583.948,14.384 C584.028,13.28 584.092,12.304 584.092,11.472 L584.092,8.224 L582.812,8.224 L582.812,16 L584.236,16 Z M594.972,16.192 C596.044,16.192 596.876,15.872 597.548,15.392 L597.084,14.544 C596.54,14.912 595.884,15.12 595.132,15.12 C593.66,15.12 592.684,14.064 592.572,12.464 L597.804,12.464 C597.852,12.208 597.868,11.968 597.868,11.68 C597.868,9.44 596.732,8.032 594.748,8.032 C592.972,8.032 591.26,9.584 591.26,12.112 C591.26,14.688 592.892,16.192 594.972,16.192 Z M596.684,11.44 L592.572,11.44 C592.732,9.952 593.692,9.088 594.78,9.088 C595.964,9.088 596.684,9.904 596.684,11.44 Z" id="Переобучение"></path>
            <path d="M276.012,16.192 C278.652,16.192 280.508,14.08 280.508,10.704 C280.508,7.36 278.652,5.312 276.012,5.312 C273.372,5.312 271.532,7.344 271.532,10.704 C271.532,14.08 273.372,16.192 276.012,16.192 Z M276.012,15.008 C274.14,15.008 272.924,13.328 272.924,10.704 C272.924,8.096 274.14,6.496 276.012,6.496 C277.884,6.496 279.116,8.096 279.116,10.704 C279.116,13.328 277.884,15.008 276.012,15.008 Z M283.964,16 L283.964,9.296 L287.532,9.296 L287.532,16 L288.86,16 L288.86,8.224 L282.636,8.224 L282.636,16 L283.964,16 Z M294.524,16 L294.524,9.296 L297.116,9.296 L297.116,8.224 L290.588,8.224 L290.588,9.296 L293.196,9.296 L293.196,16 L294.524,16 Z M300.268,16 L303.036,11.616 C303.34,11.136 303.74,10.432 304.044,9.84 L304.108,9.84 C304.028,10.96 303.98,11.92 303.98,12.752 L303.98,16 L305.244,16 L305.244,8.224 L303.836,8.224 L301.052,12.624 C300.748,13.104 300.348,13.824 300.044,14.384 L299.98,14.384 C300.06,13.28 300.124,12.304 300.124,11.472 L300.124,8.224 L298.844,8.224 L298.844,16 L300.268,16 Z M309.052,16 L309.052,12.48 C309.052,11.792 308.988,10.608 308.908,9.792 L308.972,9.792 C309.196,10.432 309.452,11.104 309.676,11.712 L311.132,15.264 L312.124,15.264 L313.564,11.712 C313.788,11.104 314.028,10.432 314.252,9.792 L314.316,9.792 C314.252,10.608 314.172,11.792 314.172,12.48 L314.172,16 L315.372,16 L315.372,8.224 L313.788,8.224 L312.332,11.856 C312.124,12.432 311.9,13.072 311.676,13.776 L311.612,13.776 C311.42,13.072 311.18,12.432 310.956,11.856 L309.436,8.224 L307.868,8.224 L307.868,16 L309.052,16 Z M318.14,19.344 C319.692,19.344 320.508,18.176 321.052,16.64 L323.98,8.224 L322.684,8.224 L321.292,12.512 C321.084,13.2 320.86,14 320.652,14.704 L320.588,14.704 C320.332,13.984 320.076,13.184 319.82,12.512 L318.252,8.224 L316.876,8.224 L319.996,16.016 L319.82,16.592 C319.5,17.552 318.94,18.24 318.076,18.24 C317.884,18.24 317.692,18.208 317.5,18.144 L317.212,19.184 C317.468,19.28 317.772,19.344 318.14,19.344 Z M326.668,16 L326.668,12.48 C326.668,11.792 326.604,10.608 326.524,9.792 L326.588,9.792 C326.812,10.432 327.068,11.104 327.292,11.712 L328.748,15.264 L329.74,15.264 L331.18,11.712 C331.404,11.104 331.644,10.432 331.868,9.792 L331.932,9.792 C331.868,10.608 331.788,11.792 331.788,12.48 L331.788,16 L332.988,16 L332.988,8.224 L331.404,8.224 L329.948,11.856 C329.74,12.432 329.516,13.072 329.292,13.776 L329.228,13.776 C329.036,13.072 328.796,12.432 328.572,11.856 L327.052,8.224 L325.484,8.224 L325.484,16 L326.668,16 Z" id="Оптимум"></path>
        </g>
    </g>
</svg>